# xmcd
#
# Track frame offsets:
#	150
#	11620
#	25078
#	42750
#	52971
#	67037
#	77790
#	89724
#	98223
#	108278
#	122124
#	135517
#	148923
#	162038
#	173444
#	185383
#	194839
#	208846
#	218463
#	230006
#	239351
#	251853
#	263041
#	275506
#	285720
#	298385
#	312402
#	325184
#	334370
#
# Disc length: 4626 seconds
# Revision: 0
# Processed by: cddbd v1.5.2PL0 Copyright (c) Steve Scherf et al.
# Submitted via: dBpowerAMP V12.0
#
DISCID=be12101d
DTITLE=Marty Robbins - Devil Woman 1961 - 1962
DYEAR=2017
DGENRE=Country
TTITLE0=The Bend In The River
TTITLE1=Abilene Rose
TTITLE2=Lolean
TTITLE3=Foggy Foggy Dew
TTITLE4=Beyond The Reef
TTITLE5=Ka-Lu-A
TTITLE6=Yours (Quiereme Mucho)
TTITLE7=Dusty Winds
TTITLE8=No One Will Ever Know
TTITLE9=The Nearness Of You
TTITLE10=All The Way
TTITLE11=I'll Walk Alone
TTITLE12=Devil Woman
TTITLE13=Ain't Life A Crying Shame
TTITLE14=Time Can't Make Me Forget
TTITLE15=In The Ashes Of An Old Love Affair
TTITLE16=The Hand You're Holding Now
TTITLE17=Worried
TTITLE18=Little Rich Girl
TTITLE19=Progressive Love
TTITLE20=I'm Beginning To Forget
TTITLE21=Love Is A Hurting Thing
TTITLE22=Kinda Halfway Feel
TTITLE23=The Wine Flowed Freely
TTITLE24=Love Can't Wait
TTITLE25=Too Far Gone
TTITLE26=April Fool's Day
TTITLE27=Ruby Ann
TTITLE28=Won't You Forgive
EXTD=
EXTT0=
EXTT1=
EXTT2=
EXTT3=
EXTT4=
EXTT5=
EXTT6=
EXTT7=
EXTT8=
EXTT9=
EXTT10=
EXTT11=
EXTT12=
EXTT13=
EXTT14=
EXTT15=
EXTT16=
EXTT17=
EXTT18=
EXTT19=
EXTT20=
EXTT21=
EXTT22=
EXTT23=
EXTT24=
EXTT25=
EXTT26=
EXTT27=
EXTT28=
PLAYORDER=
